<?xml version="1.0" encoding="utf-8"?>
<!-- Generator: Adobe Illustrator 22.0.1, SVG Export Plug-In . SVG Version: 6.00 Build 0)  -->
<svg version="1.1" id="Capa_1" xmlns="http://www.w3.org/2000/svg" xmlns:xlink="http://www.w3.org/1999/xlink" x="0px" y="0px"
	 viewBox="0 0 612 612" style="enable-background:new 0 0 612 612;" xml:space="preserve">
<style type="text/css">
	.st0{fill:#DF09EB;}
</style>
<g>
	<g>
		<path class="st0" d="M16.1,180.8h579.9c8.9,0,16.1-6.2,16.1-13.9c0-7.7-7.3-13.9-16.1-13.9H16.1C7.2,153,0,159.2,0,166.9
			C0,174.6,7.3,180.8,16.1,180.8z"/>
		<path class="st0" d="M16.1,319.9h579.9c8.9,0,16.1-6.2,16.1-13.9c0-7.7-7.3-13.9-16.1-13.9H16.1C7.2,292.1,0,298.3,0,306
			C0,313.7,7.3,319.9,16.1,319.9z"/>
		<path class="st0" d="M16.1,459h579.9c8.9,0,16.1-6.2,16.1-13.9c0-7.7-7.3-13.9-16.1-13.9H16.1c-8.9,0-16.1,6.2-16.1,13.9
			C0,452.8,7.3,459,16.1,459z"/>
	</g>
</g>
</svg>
