<?xml version="1.0" encoding="utf-8"?>
<!-- Generator: Adobe Illustrator 20.1.0, SVG Export Plug-In . SVG Version: 6.00 Build 0)  -->
<svg version="1.1" id="Capa_1" xmlns="http://www.w3.org/2000/svg" xmlns:xlink="http://www.w3.org/1999/xlink" x="0px" y="0px"
	 viewBox="0 0 252 267" style="enable-background:new 0 0 252 267;" xml:space="preserve">
<style type="text/css">
	.st0{fill:#FFFFFF;}
</style>
<path class="st0" d="M-33.6-42.6c-0.1,1.8-0.3,3.6-0.3,5.5c0,115,0,230.1,0,345.1c0,1.8,0.2,3.6,0.3,5.5c-0.7-0.2-1.9-0.2-1.9-0.5
	c-0.2-1.1-0.1-2.3-0.1-3.5c0-116,0-232,0.1-348C-35.5-39.9-37.5-42.9-33.6-42.6z"/>
<path class="st0" d="M9.3,260.9c0-83.6,0-167,0-250.9c78.5,0,156.9,0,235.7,0c0,83.4,0,166.9,0,250.9
	C166.6,260.9,88.1,260.9,9.3,260.9z M240,256c0-80.6,0-160.9,0-241.1c-75.5,0-150.6,0-225.7,0c0,80.6,0,160.8,0,241.1
	C89.7,256,164.8,256,240,256z"/>
<path class="st0" d="M204.4,210.2c-13.2,0-26.2,0-39.7,0c-2.9-8.3-6-16.9-8.7-25.5c-1.1-3.4-2.7-4.6-6.3-4.5
	c-15.3,0.2-30.6,0.2-46,0c-3.6,0-5.3,1.1-6.3,4.5c-2.3,7.6-5,15.1-7.8,22.6c-0.5,1.2-2,3-3.1,3c-12.1,0.2-24.2,0.1-37,0.1
	c4.1-11.1,8-21.7,11.9-32.2c14-37.8,28-75.7,41.9-113.6c1.1-3.1,2.4-4.4,5.9-4.3c12.2,0.3,24.3,0.2,36.5,0.1c2.6,0,4.1,0.5,5.1,3.3
	c17.6,48,35.4,96,53.1,143.9C204.1,208.3,204.2,209.2,204.4,210.2z M144.9,152.2c-6-17.4-11.8-34.4-18.1-52.9
	c-6.3,18.5-12.2,35.5-18.1,52.9C120.9,152.2,132.5,152.2,144.9,152.2z"/>
</svg>
