<?xml version="1.0" encoding="utf-8"?>
<!-- Generator: Adobe Illustrator 22.0.1, SVG Export Plug-In . SVG Version: 6.00 Build 0)  -->
<svg version="1.1" id="Vectorportal.com" xmlns="http://www.w3.org/2000/svg" xmlns:xlink="http://www.w3.org/1999/xlink" x="0px"
	 y="0px" viewBox="0 0 141 178" style="enable-background:new 0 0 141 178;" xml:space="preserve">
<style type="text/css">
	.st0{fill:#FFFFFF;}
</style>
<g>
	<path class="st0" d="M103.2,80.3l24-10c0.3,2.4,0.5,4.8,0.6,7.1c-1.4,0.1-2.4,1.2-2.4,2.5c0,1.4,1.1,2.6,2.5,2.6
		c0,2.5-0.1,4.9-0.3,7L107,91.2C106.3,87.9,105.1,84.1,103.2,80.3 M73,58.5L75.9,19c-3.2-0.3-6.5-0.5-9.8-0.5c0,1.4-1.1,2.5-2.6,2.5
		c-1.4,0-2.5-1.1-2.5-2.4c-3.7,0.2-7.3,0.6-10.9,1.2l7.2,37.3C62.5,57,67.9,57.4,73,58.5 M102.8,79.6l24.3-10.1
		c-1-7-3-14.6-6.7-21.7L96,70C98.9,72.9,101.1,76.2,102.8,79.6 M88.3,64.1c2.7,1.5,5.1,3.3,7.1,5.3L120.1,47c-1.4-2.7-3.1-5.3-5-7.9
		c-0.5,0.6-1.2,0.9-2,0.9c-1.4,0-2.6-1.1-2.6-2.6c0-1,0.5-1.8,1.3-2.2c-0.8-0.9-1.6-1.7-2.5-2.6c-2.2-2.1-4.7-4-7.4-5.6L87.1,63.5
		C87.5,63.7,87.9,63.9,88.3,64.1 M24.1,28.2c-3,1.6-5.8,3.3-8.4,5.2c0.3,0.4,0.5,1,0.5,1.6c0,1.4-1.1,2.6-2.6,2.6
		c-0.8,0-1.5-0.3-1.9-0.9c-1.9,1.7-3.5,3.6-4.9,5.5l20.6,25.3c4-3,8.6-5.4,13.4-7.1L24.1,28.2z M86.3,63.1l14.9-36.4
		c-7.1-4.1-15.6-6.5-24.6-7.6l-2.9,39.6C78.2,59.6,82.4,61.1,86.3,63.1 M126,101.5c0,0,1.1-4.3,1.7-11.1l-20.4,1.7
		c1.2,5.5,1.2,9.4,1.2,9.4C110.8,101.6,126,101.5,126,101.5 M56.4,57.3L49.3,20c-8.8,1.5-17.2,4.2-24.4,7.8l16.8,32.2
		C46.4,58.5,51.4,57.6,56.4,57.3 M29.5,165.6v3.9c18.6-1,47.7-19.8,50.8-44.3c0,0-1.2-0.1-2.6-0.8C69,152.3,44.6,163.2,29.5,165.6
		 M92.4,99.3v20.9l-4.8,0.1c0.2-7-5.3-8.3-8.8-7.4c-3.1,0.8-5.4,3.8-4.4,7.5c0.4,1.4,1.1,2.4,2,3.1C67.2,153.9,40,162,29.5,164
		v-24.8c4.7-1.9,8.6-4.7,12.3-7.9v-11.1c15.9-0.8,15.6-14.1,15.6-14.1s-15.6,0-22.9-0.1v20.7h-5V93.9c3.7-7.6,13.5-19.5,36.8-16.6
		C89.6,80.1,92.4,99.3,92.4,99.3 M87.9,110.4c-0.8-0.8-1.8-1.4-2.8-2c-1.2-0.4-2.4-0.9-3.6-0.9c-0.3,0-0.5-0.1-1-0.1l-1,0.1
		c-0.6,0.1-1.3,0.1-1.9,0.3c-1.3,0.3-2.4,0.9-3.5,1.6l-1.4,1.2c-0.4,0.5-0.8,1-1.2,1.4c-0.6,1-1.2,2-1.5,3.1c-0.4,1.1-0.4,2.1-0.4,3
		c0,1,0.1,1.8,0.3,2.6c0.2,0.7,0.5,1.3,0.7,1.8c0.2,0.5,0.5,0.8,0.6,1.1c0.2,0.2,0.2,0.4,0.2,0.4s-0.2-0.6-0.6-1.6
		c-0.1-0.5-0.3-1.1-0.4-1.8c-0.1-0.7-0.1-1.6,0-2.4c0.1-0.9,0.2-1.9,0.6-2.8c0.3-0.9,0.9-1.8,1.5-2.7c0.3-0.4,0.7-0.8,1.1-1.2l1.3-1
		c0.9-0.6,1.9-1.1,3-1.4c0.5-0.2,1.1-0.2,1.6-0.3l0.8-0.1c0.1,0,0.6,0,0.8,0.1c1.3,0,2.2,0.4,3.2,0.7c0.9,0.5,1.9,0.9,2.6,1.6
		c0.8,0.5,1.4,1.4,1.9,2c0.4,0.8,1,1.4,1.2,2.1c0.2,0.7,0.6,1.2,0.6,1.8c0.2,1,0.3,1.6,0.3,1.6s0-0.6,0-1.7c0-0.6-0.2-1.2-0.3-1.9
		c-0.1-0.8-0.6-1.5-1-2.4C89.3,112,88.8,111.1,87.9,110.4 M79.4,63.4c-2.2-0.6-4.2-1.1-6.3-1.5c-0.1,0-0.3-0.1-0.4-0.1
		c-5.4-1.1-10.4-1.4-14.9-1.2c-0.3,0-0.6,0-0.8,0c-5.3,0.3-9.9,1.3-13.8,2.6c-0.3,0.1-0.5,0.2-0.8,0.3c-5.1,1.8-8.8,4-11.2,5.8
		l6.4,11.2c9.8-5.9,21-7.8,33.1-5C82,78.2,93.5,87,94.8,98.9l10.4-0.3C105.2,98.6,102.7,70.2,79.4,63.4 M119.8,118.7
		c-3-7.7-12.3-7.4-15.6-12.1c-0.8-0.2-4.4,0-6.8-0.2H97c-3.2,7.2-2.8,15.9,3.5,19.2c18.2,9.7,6.4,29.1,33.6,37.9
		C116.6,147,124.2,130.2,119.8,118.7 M104.1,99.9h-7.5v5.1h7.5V99.9z"/>
</g>
</svg>
